<svg xmlns="http://www.w3.org/2000/svg" viewBox="0 0 1200 700">
  <defs>
    <linearGradient id="bg4" x1="0" y1="0" x2="1" y2="1">
      <stop offset="0%" stop-color="#0f172a" />
      <stop offset="100%" stop-color="#1f1146" />
    </linearGradient>
  </defs>
  <rect width="1200" height="700" fill="url(#bg4)" />
  <g opacity="0.35" stroke="#a78bfa" fill="none">
    <circle cx="280" cy="260" r="30" />
    <circle cx="430" cy="210" r="24" />
    <circle cx="560" cy="300" r="26" />
    <circle cx="710" cy="230" r="24" />
    <circle cx="860" cy="320" r="30" />
    <path d="M310 260 L406 214 L538 294 L686 234 L830 314" />
  </g>
  <g opacity="0.45" fill="#22d3ee">
    <rect x="120" y="380" width="72" height="72" rx="8" />
    <rect x="208" y="380" width="72" height="72" rx="8" />
    <rect x="296" y="380" width="72" height="72" rx="8" />
    <rect x="384" y="380" width="72" height="72" rx="8" />
    <rect x="472" y="380" width="72" height="72" rx="8" />
  </g>
  <text x="72" y="92" fill="#f5f3ff" font-size="44" font-family="Arial, sans-serif" font-weight="700">CNN and Bayesian Earth Intelligence Models</text>
  <text x="72" y="136" fill="#c4b5fd" font-size="24" font-family="Arial, sans-serif">Hybrid deep learning and probabilistic geospatial inference</text>
</svg>
