<svg xmlns="http://www.w3.org/2000/svg" viewBox="0 0 1200 700">
  <defs>
    <linearGradient id="bg3" x1="0" y1="0" x2="1" y2="1">
      <stop offset="0%" stop-color="#081726" />
      <stop offset="100%" stop-color="#1e293b" />
    </linearGradient>
  </defs>
  <rect width="1200" height="700" fill="url(#bg3)" />
  <g opacity="0.35" fill="none" stroke="#60a5fa" stroke-width="3">
    <path d="M100 500 C260 420, 420 560, 600 480 C760 420, 920 520, 1100 430" />
    <path d="M100 440 C260 360, 420 500, 600 420 C760 360, 920 460, 1100 370" />
    <path d="M100 380 C260 300, 420 440, 600 360 C760 300, 920 400, 1100 310" />
  </g>
  <g opacity="0.6">
    <circle cx="320" cy="430" r="10" fill="#22d3ee" />
    <circle cx="630" cy="410" r="10" fill="#38bdf8" />
    <circle cx="930" cy="390" r="10" fill="#60a5fa" />
  </g>
  <text x="72" y="92" fill="#e0f2fe" font-size="44" font-family="Arial, sans-serif" font-weight="700">Deformation Monitoring with SAR (InSAR)</text>
  <text x="72" y="136" fill="#93c5fd" font-size="24" font-family="Arial, sans-serif">Ground movement analysis from SAR time series</text>
</svg>
